PathFileType	4	(X/Y/Z)	Patient4_TMGait_0pt2_03_right_16.trc.trc
DataRate	CameraRate	NumFrames	NumMarkers	Units	OrigDataRate	OrigDataStartFrame	OrigNumFrames
48.780487804878	48.780487804878	4	33	mm	48.780487804878	53	       141
Frame#	Time	Sacral			L.Shoulder			Chest			R.Shoulder			Neck			R.ASIS			L.ASIS			R.Thigh.Superior			R.Thigh.Lateral			R.Thigh.Inferior			R.Patella			L.Thigh.Superior			L.Thigh.Lateral			L.Thigh.Inferior			L.Patella			L.Shank.Superior			L.Shank.Lateral			L.Shank.Inferior			R.Shank.Superior			R.Shank.Lateral			R.Shank.Inferior			R.Heel			R.Midfoot.Superior			R.Midfoot.Lateral			R.Toe			L.Heel			L.Midfoot.Lateral			L.Midfoot.Superior			L.Toe			L.Elbow			L.Wrist			R.Elbow			R.Wrist			
		X1	Y1	Z1	X2	Y2	Z2	X3	Y3	Z3	X4	Y4	Z4	X5	Y5	Z5	X6	Y6	Z6	X7	Y7	Z7	X8	Y8	Z8	X9	Y9	Z9	X10	Y10	Z10	X11	Y11	Z11	X12	Y12	Z12	X13	Y13	Z13	X14	Y14	Z14	X15	Y15	Z15	X16	Y16	Z16	X17	Y17	Z17	X18	Y18	Z18	X19	Y19	Z19	X20	Y20	Z20	X21	Y21	Z21	X22	Y22	Z22	X23	Y23	Z23	X24	Y24	Z24	X25	Y25	Z25	X26	Y26	Z26	X27	Y27	Z27	X28	Y28	Z28	X29	Y29	Z29	X30	Y30	Z30	X31	Y31	Z31	X32	Y32	Z32	X33	Y33	Z33	

53	35.476000000000	805.179140114602	995.297375912383	595.566673947754	956.253681233368	1419.444034445252	390.677228111925	1075.083147544086	1356.793705400624	541.639528787541	1010.929940927264	1429.411851963432	723.596411266120	946.897370023866	1485.672555238788	548.663834932941	1046.152564393031	928.847204083614	685.167639459262	1000.837909316485	956.429272567474	414.859190689111	1087.829692770036	728.543136308507	635.160247282305	1018.270546929971	612.440070997362	695.997639885260	1084.542834746944	567.915402245660	602.480265706334	1086.083104741240	474.545624047644	602.966591917682	1086.940904121253	772.338122637414	434.662958750308	1028.302931035763	635.557470093718	351.210888876692	1141.271563558771	582.097856309135	406.830457919578	1153.628147041225	495.563008712085	394.348524818031	1092.685707795859	426.998061261696	383.594457902299	956.708134598160	372.186273762602	330.968939308262	959.620079722381	238.307204340932	376.983397377087	1042.561907111475	386.670821784771	608.871158954964	964.167711428700	290.270154537596	674.904104207660	979.419372551903	195.608293926185	603.180950892841	820.881898471554	43.504607523302	581.611709101616	993.644543644207	95.331427535021	607.583062199859	907.643046096634	36.803027439697	652.061976937745	1115.230365895470	43.123135250470	630.335731510676	777.693524157088	145.613492314875	408.284216219874	841.897989099376	114.579373896628	326.058399447252	944.662353501173	138.266722155149	349.158793781276	1039.734883076303	42.838454728196	314.689126427720	869.725407641982	1070.018096813946	298.834753874111	871.828700978279	810.195239944207	297.739104851105	1049.948118616987	1079.135795608635	848.783742288910	1181.942199318945	854.789630098182	842.624808595881	
54	35.496500000000	804.405165124344	996.043292613859	598.887692596846	950.883287671394	1420.821624237998	393.552695800966	1072.542933435327	1358.403881666800	542.351119251953	1010.973080296336	1430.172742596873	725.546402886067	943.829442143990	1486.420552842431	551.923145765113	1045.974193747676	929.107157439827	685.923823090874	998.401855206953	957.828011690364	416.217901269553	1085.756636450928	728.259224197420	635.694774041259	1015.852106995215	612.534550450949	696.889121690993	1081.180555656524	567.723533576565	602.945544473111	1082.030541958400	474.519779582320	603.311887461092	1086.142174017188	775.528465182875	436.604769248138	1030.140001017599	638.508305053379	351.881156109131	1143.348441517734	586.246800233337	408.056730865537	1157.239627155888	500.148215363831	394.732300768976	1097.694408170319	430.760334027480	383.345567454277	962.854216587974	373.193009519861	331.303123362822	969.566449761348	239.186564369836	376.104683038434	1038.515888515728	386.722810731415	609.259273163625	960.436918856621	290.222714850846	675.423122047687	975.429261378508	195.716735637297	603.419266528837	816.817107812399	43.600037407311	581.712655721445	989.629169304174	95.282704444418	607.647565184705	903.576558978540	36.793291480271	652.126337942142	1111.175428795987	42.898251830320	630.352069963091	790.772141556645	142.098520979814	408.339316134650	854.592719494848	113.394981030654	325.112364312309	956.922063491600	138.927370248023	347.502677507773	1053.500835166288	45.540189370509	310.964205173008	853.879729382108	1074.857622218418	302.868964929369	844.095035487159	815.290805768559	305.660200193672	1068.713224512509	1082.153619248488	849.549112343090	1220.093589349250	870.750051814851	837.619738943957	
55	35.517000000000	803.797294498217	997.422515151286	601.870219841039	945.886540798610	1422.809994238461	396.362518118340	1070.212638815818	1360.503637823261	542.995062034575	1011.181356642810	1431.535045706331	727.290955813895	940.988844839848	1487.633340783939	555.102233798906	1045.796521711856	929.759932129553	686.362404728210	996.127483733830	959.800896294775	417.285101249917	1083.077563254920	728.150822332268	636.028518162756	1012.505478551329	613.046869374957	697.738979897251	1076.751513275800	567.719369819951	603.444858182186	1076.717018901651	474.862776619730	603.794135771809	1084.545157427948	778.511305394567	437.920649874830	1030.213520398640	641.505580372741	352.145015250433	1143.366366373500	589.969403697712	408.697986058307	1158.678921961342	504.708477117733	394.690803325360	1101.146470707411	434.520405824463	382.712168876058	968.338227664361	372.894265424149	331.041053789987	980.182293127866	239.025319710165	374.721453292466	1033.487124329851	387.145436806698	609.783032313395	955.936374218727	290.386321888480	676.043721767709	971.014527991670	196.048768076287	603.748513343494	812.706511606230	43.697778997000	581.812333685330	985.575446480526	95.245479889083	607.730534069155	899.481342002733	36.777794725566	652.187988852111	1107.084084350750	42.726669431348	630.362307342406	805.750019992042	135.895822780463	407.771945806474	869.467578972155	110.060526229079	323.645579097556	970.964919732535	138.443744630870	345.371597556950	1069.883639165375	48.294051175924	306.997527610234	838.789010570235	1080.717405119929	306.717945531445	819.006079690986	821.824138414996	313.705631397007	1086.819072900462	1086.886461682275	849.994257733708	1256.704930260746	890.670651514805	831.389643806392	
56	35.537500000000	803.325904264220	999.299030613830	604.562814217543	941.277654918730	1425.285343893131	399.098893834559	1068.102861366416	1362.933554703187	543.561488891827	1011.584805395540	1433.331374793930	728.840885677064	938.412003483983	1489.203191723007	558.180593503227	1045.617807930622	930.727403095255	686.489911779087	993.933850811016	962.203037186620	418.066078279144	1079.862117552931	728.174877868644	636.183476129487	1008.342462795966	613.906735046234	698.568530176010	1071.372773413805	567.863595878879	603.989132773661	1070.285144659092	475.521965271706	604.421395911448	1082.211880343941	781.182772571567	438.611915512655	1028.627847817823	644.378278003880	352.035070239693	1141.494543185733	593.127993579977	408.766797725816	1158.108409780447	509.080604863058	394.262914575272	1103.135850895223	438.148662907609	381.761729953865	973.266257784721	371.380802622621	330.159029798747	991.310218043025	237.987072324969	372.885124643246	1027.606428570658	387.885432739094	610.447697381251	950.748311398020	290.723450977175	676.754340846983	966.222923180081	196.565305128093	604.160598892610	808.552839477580	43.791218883063	581.908378187608	981.482696927791	95.218305937493	607.827532415881	895.357016033130	36.756804371590	652.246666203979	1102.957850903012	42.610009178015	630.366808707420	822.318928345264	127.604711963799	406.512056788987	886.231285819389	104.951642329792	321.680736584463	986.522599094755	136.978233679019	342.855517160262	1088.422694472042	50.995604311347	303.071877294632	824.605564437806	1087.370481498832	310.378111776585	796.676474370359	829.332523536607	321.731630449885	1104.122603019212	1093.053304083401	850.178919175662	1291.144445097513	914.184001145656	824.046054612466	
